<mxfile host="app.diagrams.net" modified="2021-05-13T22:00:21.018Z" agent="5.0 (Windows NT 10.0; Win64; x64) AppleWebKit/537.36 (KHTML, like Gecko) Chrome/90.0.4430.93 Safari/537.36" etag="_wLkAT_8TsgZoAZMp9rn" version="14.6.13" type="github">
  <diagram id="prtHgNgQTEPvFCAcTncT" name="Page-1">
    <mxGraphModel dx="1819" dy="1714" grid="1" gridSize="10" guides="1" tooltips="1" connect="1" arrows="1" fold="1" page="1" pageScale="1" pageWidth="827" pageHeight="1169" math="0" shadow="0">
      <root>
        <mxCell id="0" />
        <mxCell id="1" parent="0" />
        <mxCell id="cs0Uo0hrlMR5a2CyO7pN-2" value="Download History" style="ellipse;whiteSpace=wrap;html=1;" vertex="1" parent="1">
          <mxGeometry x="40" y="80" width="120" height="80" as="geometry" />
        </mxCell>
        <mxCell id="cs0Uo0hrlMR5a2CyO7pN-3" value="Binance API" style="shape=process;whiteSpace=wrap;html=1;backgroundOutline=1;" vertex="1" parent="1">
          <mxGeometry x="40" y="-70" width="120" height="60" as="geometry" />
        </mxCell>
        <mxCell id="cs0Uo0hrlMR5a2CyO7pN-4" value="" style="line;strokeWidth=2;html=1;" vertex="1" parent="1">
          <mxGeometry width="810" height="10" as="geometry" />
        </mxCell>
        <mxCell id="cs0Uo0hrlMR5a2CyO7pN-5" value="" style="endArrow=classic;html=1;entryX=0;entryY=0;entryDx=0;entryDy=0;" edge="1" parent="1" source="cs0Uo0hrlMR5a2CyO7pN-2" target="cs0Uo0hrlMR5a2CyO7pN-6">
          <mxGeometry width="50" height="50" relative="1" as="geometry">
            <mxPoint x="390" y="310" as="sourcePoint" />
            <mxPoint x="250" y="240" as="targetPoint" />
          </mxGeometry>
        </mxCell>
        <mxCell id="cs0Uo0hrlMR5a2CyO7pN-6" value="Reformat into pandas df and save file" style="ellipse;whiteSpace=wrap;html=1;" vertex="1" parent="1">
          <mxGeometry x="240" y="230" width="120" height="80" as="geometry" />
        </mxCell>
        <mxCell id="cs0Uo0hrlMR5a2CyO7pN-7" value="" style="endArrow=classic;html=1;exitX=0.5;exitY=1;exitDx=0;exitDy=0;entryX=0.5;entryY=0;entryDx=0;entryDy=0;" edge="1" parent="1" source="cs0Uo0hrlMR5a2CyO7pN-6" target="cs0Uo0hrlMR5a2CyO7pN-8">
          <mxGeometry width="50" height="50" relative="1" as="geometry">
            <mxPoint x="390" y="300" as="sourcePoint" />
            <mxPoint x="332" y="370" as="targetPoint" />
          </mxGeometry>
        </mxCell>
        <mxCell id="cs0Uo0hrlMR5a2CyO7pN-8" value="Train prediction nn on backlog" style="ellipse;whiteSpace=wrap;html=1;" vertex="1" parent="1">
          <mxGeometry x="240" y="360" width="120" height="80" as="geometry" />
        </mxCell>
        <mxCell id="cs0Uo0hrlMR5a2CyO7pN-9" value="Initialize prediction nn" style="ellipse;whiteSpace=wrap;html=1;" vertex="1" parent="1">
          <mxGeometry x="240" y="80" width="120" height="80" as="geometry" />
        </mxCell>
        <mxCell id="cs0Uo0hrlMR5a2CyO7pN-10" value="" style="endArrow=classic;html=1;exitX=0.5;exitY=1;exitDx=0;exitDy=0;" edge="1" parent="1" source="cs0Uo0hrlMR5a2CyO7pN-8" target="cs0Uo0hrlMR5a2CyO7pN-11">
          <mxGeometry width="50" height="50" relative="1" as="geometry">
            <mxPoint x="390" y="540" as="sourcePoint" />
            <mxPoint x="290" y="530" as="targetPoint" />
          </mxGeometry>
        </mxCell>
        <mxCell id="cs0Uo0hrlMR5a2CyO7pN-11" value="Take current web socket price" style="ellipse;whiteSpace=wrap;html=1;" vertex="1" parent="1">
          <mxGeometry x="240" y="490" width="120" height="80" as="geometry" />
        </mxCell>
        <mxCell id="cs0Uo0hrlMR5a2CyO7pN-12" value="" style="endArrow=classic;html=1;exitX=0.5;exitY=1;exitDx=0;exitDy=0;entryX=0.5;entryY=0;entryDx=0;entryDy=0;" edge="1" parent="1" source="cs0Uo0hrlMR5a2CyO7pN-11" target="cs0Uo0hrlMR5a2CyO7pN-14">
          <mxGeometry width="50" height="50" relative="1" as="geometry">
            <mxPoint x="390" y="530" as="sourcePoint" />
            <mxPoint x="290" y="640" as="targetPoint" />
          </mxGeometry>
        </mxCell>
        <mxCell id="cs0Uo0hrlMR5a2CyO7pN-13" value="Buy, sell, or cancel ?" style="rhombus;whiteSpace=wrap;html=1;" vertex="1" parent="1">
          <mxGeometry x="260" y="790" width="80" height="80" as="geometry" />
        </mxCell>
        <mxCell id="cs0Uo0hrlMR5a2CyO7pN-14" value="Prediction network" style="ellipse;whiteSpace=wrap;html=1;" vertex="1" parent="1">
          <mxGeometry x="240" y="640" width="120" height="80" as="geometry" />
        </mxCell>
        <mxCell id="cs0Uo0hrlMR5a2CyO7pN-15" value="" style="endArrow=classic;html=1;exitX=0.5;exitY=1;exitDx=0;exitDy=0;entryX=0.5;entryY=0;entryDx=0;entryDy=0;" edge="1" parent="1" source="cs0Uo0hrlMR5a2CyO7pN-14" target="cs0Uo0hrlMR5a2CyO7pN-13">
          <mxGeometry width="50" height="50" relative="1" as="geometry">
            <mxPoint x="280" y="770" as="sourcePoint" />
            <mxPoint x="330" y="720" as="targetPoint" />
          </mxGeometry>
        </mxCell>
        <mxCell id="cs0Uo0hrlMR5a2CyO7pN-16" value="" style="endArrow=classic;html=1;exitX=1;exitY=1;exitDx=0;exitDy=0;" edge="1" parent="1" source="cs0Uo0hrlMR5a2CyO7pN-13" target="cs0Uo0hrlMR5a2CyO7pN-18">
          <mxGeometry width="50" height="50" relative="1" as="geometry">
            <mxPoint x="320" y="880" as="sourcePoint" />
            <mxPoint x="380" y="890" as="targetPoint" />
          </mxGeometry>
        </mxCell>
        <mxCell id="cs0Uo0hrlMR5a2CyO7pN-17" value="Yes" style="text;html=1;strokeColor=none;fillColor=none;align=center;verticalAlign=middle;whiteSpace=wrap;rounded=0;" vertex="1" parent="1">
          <mxGeometry x="360" y="850" width="40" height="20" as="geometry" />
        </mxCell>
        <mxCell id="cs0Uo0hrlMR5a2CyO7pN-18" value="Place Order" style="ellipse;whiteSpace=wrap;html=1;" vertex="1" parent="1">
          <mxGeometry x="440" y="880" width="120" height="80" as="geometry" />
        </mxCell>
        <mxCell id="cs0Uo0hrlMR5a2CyO7pN-19" value="Custom" style="shape=process;whiteSpace=wrap;html=1;backgroundOutline=1;" vertex="1" parent="1">
          <mxGeometry x="240" y="-70" width="120" height="60" as="geometry" />
        </mxCell>
        <mxCell id="cs0Uo0hrlMR5a2CyO7pN-20" value="Trader" style="shape=process;whiteSpace=wrap;html=1;backgroundOutline=1;" vertex="1" parent="1">
          <mxGeometry x="440" y="-70" width="120" height="60" as="geometry" />
        </mxCell>
        <mxCell id="cs0Uo0hrlMR5a2CyO7pN-21" value="" style="endArrow=classic;html=1;exitX=0.5;exitY=0;exitDx=0;exitDy=0;entryX=1;entryY=1;entryDx=0;entryDy=0;" edge="1" parent="1" source="cs0Uo0hrlMR5a2CyO7pN-18" target="cs0Uo0hrlMR5a2CyO7pN-11">
          <mxGeometry width="50" height="50" relative="1" as="geometry">
            <mxPoint x="390" y="840" as="sourcePoint" />
            <mxPoint x="440" y="790" as="targetPoint" />
          </mxGeometry>
        </mxCell>
        <mxCell id="cs0Uo0hrlMR5a2CyO7pN-24" value="No" style="text;html=1;strokeColor=none;fillColor=none;align=center;verticalAlign=middle;whiteSpace=wrap;rounded=0;" vertex="1" parent="1">
          <mxGeometry x="260" y="890" width="40" height="20" as="geometry" />
        </mxCell>
        <mxCell id="cs0Uo0hrlMR5a2CyO7pN-27" value="Yes" style="text;html=1;strokeColor=none;fillColor=none;align=center;verticalAlign=middle;whiteSpace=wrap;rounded=0;" vertex="1" parent="1">
          <mxGeometry x="330" y="1010" width="40" height="20" as="geometry" />
        </mxCell>
        <mxCell id="cs0Uo0hrlMR5a2CyO7pN-28" value="Manage/Cancel Orders" style="ellipse;whiteSpace=wrap;html=1;" vertex="1" parent="1">
          <mxGeometry x="440" y="1080" width="120" height="80" as="geometry" />
        </mxCell>
        <mxCell id="cs0Uo0hrlMR5a2CyO7pN-29" value="" style="endArrow=classic;html=1;entryX=0;entryY=1;entryDx=0;entryDy=0;" edge="1" parent="1" target="cs0Uo0hrlMR5a2CyO7pN-11">
          <mxGeometry width="50" height="50" relative="1" as="geometry">
            <mxPoint x="160" y="970" as="sourcePoint" />
            <mxPoint x="200" y="720" as="targetPoint" />
          </mxGeometry>
        </mxCell>
        <mxCell id="cs0Uo0hrlMR5a2CyO7pN-31" value="" style="endArrow=none;html=1;entryX=0;entryY=0.5;entryDx=0;entryDy=0;" edge="1" parent="1" target="cs0Uo0hrlMR5a2CyO7pN-28">
          <mxGeometry width="50" height="50" relative="1" as="geometry">
            <mxPoint x="160" y="1120" as="sourcePoint" />
            <mxPoint x="230" y="1100" as="targetPoint" />
          </mxGeometry>
        </mxCell>
        <mxCell id="cs0Uo0hrlMR5a2CyO7pN-33" value="No" style="text;html=1;strokeColor=none;fillColor=none;align=center;verticalAlign=middle;whiteSpace=wrap;rounded=0;" vertex="1" parent="1">
          <mxGeometry x="200" y="970" width="40" height="20" as="geometry" />
        </mxCell>
        <mxCell id="cs0Uo0hrlMR5a2CyO7pN-34" value="" style="endArrow=none;html=1;" edge="1" parent="1">
          <mxGeometry width="50" height="50" relative="1" as="geometry">
            <mxPoint x="160" y="1120" as="sourcePoint" />
            <mxPoint x="160" y="970" as="targetPoint" />
          </mxGeometry>
        </mxCell>
        <mxCell id="cs0Uo0hrlMR5a2CyO7pN-37" value="" style="endArrow=none;dashed=1;html=1;" edge="1" parent="1">
          <mxGeometry width="50" height="50" relative="1" as="geometry">
            <mxPoint x="400" y="1170.800048828125" as="sourcePoint" />
            <mxPoint x="400" y="-70" as="targetPoint" />
          </mxGeometry>
        </mxCell>
        <mxCell id="cs0Uo0hrlMR5a2CyO7pN-38" value="" style="endArrow=none;dashed=1;html=1;" edge="1" parent="1">
          <mxGeometry width="50" height="50" relative="1" as="geometry">
            <mxPoint x="200" y="1170" as="sourcePoint" />
            <mxPoint x="200" y="-70" as="targetPoint" />
          </mxGeometry>
        </mxCell>
        <mxCell id="cs0Uo0hrlMR5a2CyO7pN-40" value="#coins x outlook matrix" style="text;html=1;strokeColor=none;fillColor=none;align=center;verticalAlign=middle;whiteSpace=wrap;rounded=0;" vertex="1" parent="1">
          <mxGeometry x="250" y="740" width="130" height="20" as="geometry" />
        </mxCell>
        <mxCell id="cs0Uo0hrlMR5a2CyO7pN-41" value="Retrieve Outstanding Orders" style="ellipse;whiteSpace=wrap;html=1;" vertex="1" parent="1">
          <mxGeometry x="440" y="640" width="120" height="80" as="geometry" />
        </mxCell>
        <mxCell id="cs0Uo0hrlMR5a2CyO7pN-42" value="" style="endArrow=classic;html=1;entryX=1;entryY=0;entryDx=0;entryDy=0;" edge="1" parent="1" target="cs0Uo0hrlMR5a2CyO7pN-13">
          <mxGeometry width="50" height="50" relative="1" as="geometry">
            <mxPoint x="460" y="710" as="sourcePoint" />
            <mxPoint x="520" y="760" as="targetPoint" />
          </mxGeometry>
        </mxCell>
      </root>
    </mxGraphModel>
  </diagram>
</mxfile>
